<svg xmlns="http://www.w3.org/2000/svg" width="18.081" height="18.08" viewBox="0 0 18.081 18.08"><!--! Font Awesome Pro 6.2.1 by fontawesome - https://fontawesome.com License - https://fontawesome.com/license (Commercial License) Copyright 2022 Fonticons, Inc. --><path d="M16.144,32H1.937A1.937,1.937,0,0,0,0,33.937V48.143A1.937,1.937,0,0,0,1.937,50.08H7.476V43.933H4.934V41.04H7.476V38.835a3.531,3.531,0,0,1,3.78-3.894,15.4,15.4,0,0,1,2.241.2V37.6H12.236A1.447,1.447,0,0,0,10.6,39.161V41.04H13.38l-.444,2.893H10.6V50.08h5.539a1.937,1.937,0,0,0,1.937-1.937V33.937A1.937,1.937,0,0,0,16.144,32Z" transform="translate(0 -32)" fill="#00205c"></path></svg>