<svg xmlns="http://www.w3.org/2000/svg" width="19.786" height="19.782" viewBox="0 0 19.786 19.782"><!--! Font Awesome Pro 6.2.1 by fontawesome - https://fontawesome.com License - https://fontawesome.com/license (Commercial License) Copyright 2022 Fonticons, Inc. --><path d="M9.82,36.644a5.072,5.072,0,1,0,5.072,5.072A5.064,5.064,0,0,0,9.82,36.644Zm0,8.369a3.3,3.3,0,1,1,3.3-3.3A3.3,3.3,0,0,1,9.82,45.013Zm6.462-8.576A1.183,1.183,0,1,1,15.1,35.254,1.18,1.18,0,0,1,16.282,36.437Zm3.359,1.2a5.854,5.854,0,0,0-1.6-4.145,5.893,5.893,0,0,0-4.145-1.6c-1.633-.093-6.528-.093-8.162,0a5.884,5.884,0,0,0-4.145,1.593,5.873,5.873,0,0,0-1.6,4.145c-.093,1.633-.093,6.528,0,8.162a5.854,5.854,0,0,0,1.6,4.145,5.9,5.9,0,0,0,4.145,1.6c1.633.093,6.528.093,8.162,0a5.854,5.854,0,0,0,4.145-1.6,5.893,5.893,0,0,0,1.6-4.145c.093-1.633.093-6.524,0-8.157Zm-2.11,9.91a3.338,3.338,0,0,1-1.88,1.88c-1.3.516-4.392.4-5.831.4s-4.533.115-5.831-.4a3.338,3.338,0,0,1-1.88-1.88c-.516-1.3-.4-4.392-.4-5.831s-.115-4.533.4-5.831A3.338,3.338,0,0,1,3.989,34c1.3-.516,4.392-.4,5.831-.4s4.533-.115,5.831.4a3.338,3.338,0,0,1,1.88,1.88c.516,1.3.4,4.392.4,5.831S18.048,46.249,17.532,47.547Z" transform="translate(0.075 -31.825)" fill="#00205c"></path></svg>